# xmcd
#
# Track frame offsets: 
#        150
#        10837
#        33940
#        55757
#        77455
#        97575
#        118882
#        136672
#        176492
#        203432
#        216895
#        236172
#        264337
#
# Disc length: 3663 seconds
#
# Revision: 5
# Processed by: cddbd v1.5.2PL0 Copyright (c) Steve Scherf et al.
# Submitted via: ExactAudioCopyFreeDBPlugin 1.0
#
DISCID=9a0e4d0d
DTITLE=Various Artist - Jazz Sax
DYEAR=1996
DGENRE=Jazz
TTITLE0=Earl Bostic - Ain't misbehavin
TTITLE1=Charlie Parker Septet inc Miles Davis - A Night in Tunisia
TTITLE2=Sonny Rollins - Like someone in love
TTITLE3=Bud Shank - Charity Rag
TTITLE4=Woody Herman - Woodchoppers' Ball
TTITLE5=Stan Getz - Stan's Blues
TTITLE6=Dizzy Gillespie - Dizzy Atmosphere
TTITLE7=Sonny Rollins - Sonnymoon for two
TTITLE8=Earl Bostic - Sweet Lorraine
TTITLE9=Benny Carter - Who's sorry now
TTITLE10=Woody Herman - Blowin' up a storm
TTITLE11=Stan Getz - Here's that rainy day
TTITLE12=Earl Bostic - Harlem nocturne
EXTD=YEAR: 1996
EXTT0=
EXTT1=
EXTT2=
EXTT3=
EXTT4=
EXTT5=
EXTT6=
EXTT7=
EXTT8=
EXTT9=
EXTT10=
EXTT11=
EXTT12=
PLAYORDER=
